<?xml version="1.0" standalone="no"?>
<!DOCTYPE svg PUBLIC "-//W3C//DTD SVG 20010904//EN"
 "http://www.w3.org/TR/2001/REC-SVG-20010904/DTD/svg10.dtd">
<svg version="1.0" xmlns="http://www.w3.org/2000/svg"
 width="800.000000pt" height="800.000000pt" viewBox="0 0 800.000000 800.000000"
 preserveAspectRatio="xMidYMid meet">
<metadata>
Created by potrace 1.11, written by Peter Selinger 2001-2013
</metadata>
<g transform="translate(0.000000,800.000000) scale(0.100000,-0.100000)"
fill="#000000" stroke="none">
<path d="M4932 7149 c-79 -13 -196 -55 -287 -102 -122 -64 -219 -149 -291
-256 -77 -114 -818 -1556 -856 -1666 -27 -75 -36 -235 -18 -314 28 -128 113
-233 235 -291 65 -31 383 -144 1210 -432 608 -211 628 -218 715 -224 231 -18
466 139 674 450 125 186 183 305 376 766 54 129 162 372 240 540 78 168 151
329 162 359 31 86 44 208 31 292 -22 139 -122 284 -240 347 -95 50 -1499 497
-1660 528 -82 15 -208 17 -291 3z m202 -479 c156 -59 193 -237 81 -391 -74
-100 -194 -161 -320 -161 -112 0 -188 41 -230 125 -116 233 206 525 469 427z
m1310 -400 c85 -43 127 -112 127 -208 0 -192 -190 -362 -404 -362 -250 0 -348
243 -181 447 110 134 323 191 458 123z m-1899 -840 c87 -39 129 -104 129 -200
0 -117 -79 -227 -211 -291 -83 -42 -206 -52 -279 -24 -95 36 -146 108 -146
206 0 223 297 404 507 309z m1267 -412 c142 -60 188 -231 99 -369 -134 -211
-445 -274 -585 -119 -44 49 -59 98 -54 173 5 81 38 149 105 214 120 118 297
159 435 101z"/>
<path d="M4962 6650 c-97 -20 -211 -102 -252 -181 -67 -129 -37 -244 78 -297
207 -94 508 129 453 336 -29 105 -151 168 -279 142z"/>
<path d="M6225 6256 c-141 -36 -247 -135 -279 -259 -54 -205 157 -332 379
-228 235 109 290 393 93 475 -52 22 -135 27 -193 12z"/>
<path d="M4313 5405 c-51 -15 -128 -64 -165 -102 -49 -52 -73 -112 -73 -184 0
-57 4 -71 29 -103 38 -50 115 -86 184 -86 108 0 231 61 296 146 45 59 59 103
54 173 -5 71 -34 112 -102 146 -57 29 -151 33 -223 10z"/>
<path d="M5565 4992 c-151 -52 -251 -163 -262 -292 -6 -67 16 -119 71 -168 47
-41 104 -55 198 -50 185 11 349 163 349 323 0 92 -60 169 -152 195 -52 15
-148 11 -204 -8z"/>
<path d="M7388 6076 c-47 -17 -112 -68 -136 -109 -25 -40 -873 -1798 -895
-1853 -113 -292 -72 -652 136 -1194 91 -234 202 -389 292 -406 66 -12 140 42
218 161 50 75 696 1481 777 1690 102 263 125 389 117 635 -11 306 -83 568
-241 878 -99 193 -159 237 -268 198z m-145 -1513 c69 -78 -33 -433 -160 -554
-48 -46 -72 -53 -101 -31 -58 44 -31 236 59 418 77 158 153 220 202 167z"/>
<path d="M7155 4516 c-122 -129 -223 -499 -141 -514 43 -9 155 177 196 328 31
116 25 220 -13 220 -5 0 -24 -15 -42 -34z"/>
<path d="M2102 5224 c-97 -27 -226 -89 -563 -269 -652 -348 -1073 -587 -1130
-642 -50 -48 -90 -134 -103 -221 -13 -91 8 -208 52 -292 71 -134 835 -1283
888 -1334 125 -122 291 -167 443 -121 84 26 1667 878 1730 932 90 76 126 258
82 418 -34 122 -77 193 -295 482 -111 147 -265 351 -342 453 -76 102 -188 252
-248 333 -156 214 -230 266 -380 273 -52 2 -100 -2 -134 -12z m98 -471 c114
-37 186 -155 160 -264 -34 -140 -188 -221 -331 -174 -72 23 -113 57 -144 118
-63 127 -1 270 137 318 67 23 112 24 178 2z m-483 -299 c98 -61 139 -174 99
-279 -20 -52 -88 -117 -142 -136 -111 -38 -241 0 -305 88 -29 41 -34 58 -37
115 -5 82 20 142 78 188 59 46 105 60 187 56 59 -2 82 -8 120 -32z m-566 -239
c62 -22 106 -60 134 -115 47 -93 27 -201 -50 -269 -56 -48 -100 -64 -180 -65
-119 0 -209 63 -241 171 -55 182 144 346 337 278z m1692 -361 c64 -22 132 -97
145 -162 33 -152 -81 -281 -248 -282 -145 0 -250 97 -250 232 0 165 177 272
353 212z m-512 -285 c81 -41 129 -116 129 -201 -1 -96 -50 -171 -142 -213
-125 -58 -276 -10 -336 108 -41 78 -28 179 30 247 74 86 216 112 319 59z
m-562 -245 c168 -50 226 -249 108 -372 -56 -58 -102 -77 -192 -77 -69 0 -86 4
-127 27 -189 112 -157 357 55 424 57 17 93 17 156 -2z"/>
<path d="M2015 4712 c-49 -23 -99 -78 -115 -127 -48 -146 112 -288 273 -241
175 51 214 249 69 350 -37 26 -54 31 -115 34 -54 2 -82 -2 -112 -16z"/>
<path d="M1507 4446 c-177 -66 -198 -279 -36 -360 64 -32 144 -35 204 -7 43
19 100 78 116 118 21 57 2 142 -44 191 -54 58 -167 86 -240 58z"/>
<path d="M1000 4191 c-101 -33 -160 -105 -160 -196 0 -113 92 -195 219 -195
170 1 275 168 187 300 -48 72 -168 117 -246 91z"/>
<path d="M2645 3817 c-109 -53 -151 -153 -106 -253 59 -129 243 -165 351 -68
54 49 73 95 68 160 -9 103 -86 173 -202 181 -50 3 -70 0 -111 -20z"/>
<path d="M2103 3535 c-195 -98 -120 -368 102 -370 191 -1 295 204 169 331 -70
69 -178 85 -271 39z"/>
<path d="M1600 3289 c-130 -52 -173 -216 -82 -312 101 -107 278 -94 356 27 47
72 46 131 -2 205 -37 58 -106 91 -186 90 -34 0 -72 -5 -86 -10z"/>
<path d="M3605 4360 c-54 -8 -82 -25 -105 -63 -26 -42 -25 -58 9 -158 40 -120
86 -207 201 -379 258 -385 517 -637 785 -765 136 -64 1775 -674 1833 -682 83
-11 172 37 172 94 0 108 -229 637 -342 788 -156 209 -444 426 -718 540 -121
51 -1725 622 -1760 627 -19 2 -53 2 -75 -2z m1708 -771 c34 -11 105 -43 157
-70 168 -86 265 -182 229 -225 -62 -75 -539 170 -539 277 0 15 6 30 13 32 27
11 81 6 140 -14z m-447 -110 c124 -38 266 -119 347 -197 47 -46 58 -77 35
-100 -66 -66 -538 179 -538 278 0 45 52 51 156 19z m-423 -100 c157 -53 352
-177 385 -245 16 -35 16 -36 -3 -51 -61 -45 -337 68 -479 197 -43 40 -56 59
-56 80 0 16 6 31 13 33 27 11 81 6 140 -14z"/>
<path d="M5196 3571 c-25 -39 248 -207 399 -246 84 -21 94 -6 33 50 -112 101
-408 236 -432 196z"/>
<path d="M4750 3457 c0 -35 170 -154 291 -204 82 -33 171 -55 182 -44 14 14
-75 93 -158 140 -151 87 -315 143 -315 108z"/>
<path d="M4325 3361 c-8 -13 50 -69 118 -114 124 -83 327 -161 352 -136 28 30
-205 183 -357 233 -83 28 -104 31 -113 17z"/>
<path d="M119 3853 c-19 -22 -24 -281 -9 -443 14 -151 62 -445 91 -555 89
-344 251 -655 806 -1545 138 -221 188 -291 221 -317 101 -77 159 -49 177 87
15 107 -41 659 -86 846 -71 300 -109 371 -628 1169 -244 374 -459 701 -479
728 -38 50 -69 60 -93 30z m302 -595 c63 -125 119 -268 119 -303 0 -37 -26
-31 -54 13 -47 70 -156 334 -156 377 0 8 9 15 20 15 15 0 32 -24 71 -102z m11
-575 c43 -49 168 -340 168 -392 0 -50 -23 -39 -63 29 -33 58 -122 264 -137
319 -15 58 0 80 32 44z m564 -300 c79 -158 124 -287 106 -305 -19 -19 -45 16
-103 137 -87 184 -119 306 -76 293 6 -2 39 -58 73 -125z m7 -561 c22 -24 108
-207 141 -300 32 -89 33 -112 6 -112 -16 0 -33 26 -79 123 -62 129 -111 255
-111 288 0 24 22 25 43 1z"/>
<path d="M3530 3144 c-47 -9 -155 -47 -205 -72 -212 -105 -1407 -791 -1531
-878 -90 -63 -189 -175 -229 -258 -85 -180 -94 -347 -39 -776 30 -232 79 -320
178 -320 71 0 423 154 773 339 829 436 894 476 1065 660 151 163 213 352 248
751 30 343 6 469 -101 529 -38 22 -113 33 -159 25z m-1229 -962 c31 -26 28
-83 -7 -134 -90 -129 -329 -233 -393 -169 -43 43 -21 112 61 191 106 104 278
160 339 112z m1136 -77 c79 -56 -17 -203 -187 -284 -62 -30 -86 -36 -138 -36
-72 0 -92 15 -92 69 0 133 315 322 417 251z"/>
<path d="M2175 2156 c-100 -32 -188 -93 -235 -165 -37 -54 -38 -78 -5 -93 92
-42 355 130 355 231 0 39 -45 49 -115 27z"/>
<path d="M3305 2072 c-103 -36 -204 -112 -240 -182 -62 -119 139 -94 283 35
79 71 104 133 63 155 -27 14 -47 12 -106 -8z"/>
</g>
</svg>
