<svg viewBox="0 0 1667 1667" xmlns="http://www.w3.org/2000/svg" xml:space="preserve" fill-rule="evenodd"
    clip-rule="evenodd" stroke-linecap="round" stroke-linejoin="round" stroke-miterlimit="1.5">
    <path
        d="M378.7 1162.2a40169.2 40169.2 0 0 0 325.9-175.6c38.6-21.1 36.9-76.2 20.6-111.1a212.2 212.2 0 0 0-20.8-35.3c-35.8-49.1-74-96.5-110.4-145.1-17.4-23.2-34.3-46.8-51.2-70.4-51.7-72-110.3-31.6-164.1-4.9-17.8 8.9-52.8 28.8-70.5 37.9A4353.1 4353.1 0 0 0 116 765.1c-34.5 27.2-33.8 81.5-11.6 116.3 53.8 84.6 110 167.7 165.7 251 0 0 42.2 58.2 108.7 29.8ZM98 912.8l155.3 239c41.7 69.8 50.7 152.2 55 231.7.3 6.8 9.5 76.2-22 62.2a55 55 0 0 1-15-9.5c-4.7-4.3-8-9.7-11.4-15a7731 7731 0 0 1-98.3-159c-37.4-62.6-75.3-127.1-93.5-198.6A928 928 0 0 1 49.4 945c-1.7-24.4-3.4-46.4-1-70.7 1-10.2 6.1-18.4 13.4-13.4 6.4 4.5 31.3 45.7 36.2 51.9Zm298 280.3c49-29 98.1-58.2 147.6-86.6 37.2-21.3 74.8-41.6 112.2-62.5 33.8-18.8 111.2-69.8 133.7-8.3 2.4 6.7 3.5 14 3.5 21.2a843.8 843.8 0 0 1-10.6 122c-4 21.6-13.5 53-26.5 71.2-40 56.4-106.3 85-164.8 116.4-68.9 37-137.7 75.3-211.5 101.9-37.7 12.3-42.2-46.3-45-69.8-6.4-54.7-16.9-119.4 19.5-166.7a152 152 0 0 1 41.9-38.8Z"
        fill="#1f5e81" stroke="#142128" stroke-width="2.1" />
    <path
        d="M266.1 796.6c22.4 13 29 40.1 14.7 60.7a51 51 0 0 1-66.4 13.8 41.6 41.6 0 0 1-14.7-60.6 51 51 0 0 1 66.4-13.9Zm105.2-52.4c22.4 13 29 40.1 14.7 60.7a51 51 0 0 1-66.4 13.8 41.6 41.6 0 0 1-14.6-60.6 51 51 0 0 1 66.3-13.9Zm107.3-55.7c22.4 12.9 29 40 14.7 60.6A51 51 0 0 1 427 763c-22.3-13-29-40.1-14.6-60.7a51 51 0 0 1 66.3-13.8ZM393 976.8a41.6 41.6 0 0 1 14.6 60.6 51 51 0 0 1-66.3 13.9 41.7 41.7 0 0 1-14.7-60.7 51 51 0 0 1 66.4-13.8Zm105.2-52.4c22.4 12.9 29 40 14.7 60.6a51 51 0 0 1-66.4 13.8 41.6 41.6 0 0 1-14.7-60.6 51 51 0 0 1 66.4-13.8Zm107.3-55.8c22.3 13 29 40.1 14.7 60.7a51 51 0 0 1-66.4 13.8c-22.4-13-29-40-14.7-60.6a51 51 0 0 1 66.4-13.9ZM439.3 1213c22.3-14.3 45.4-18 51.7-8.3 6.2 9.8-6.9 29.2-29.2 43.5-22.2 14.2-45.4 17.8-51.6 8.1-6.2-9.7 6.8-29.2 29.1-43.4Zm230 16c22.2-14.2 45.4-17.9 51.6-8.2 6.2 9.8-6.8 29.2-29.1 43.5-22.3 14.2-45.4 17.9-51.7 8.1-6.2-9.7 6.9-29.1 29.2-43.4Zm-557.8-128.6c4.4 5.4 15.3 27.4 24.2 49.2 8.9 21.7 12.5 35 8 29.6-4.5-5.4-15.3-27.4-24.2-49.2-8.9-21.7-12.5-35-8-29.6ZM98.8 966c4.5 5.3 15.3 27.4 24.2 49.1 8.9 21.8 12.5 35 8 29.7-4.4-5.4-15.3-27.5-24.2-49.2-8.9-21.8-12.5-35-8-29.7Zm126.9 307c4.4 5.3 15.3 27.4 24.1 49.1 9 21.8 12.5 35 8 29.7-4.4-5.4-15.2-27.5-24.1-49.2-9-21.8-12.5-35-8-29.7ZM213 1138.5c4.4 5.4 15.3 27.4 24.2 49.2 8.8 21.7 12.4 35 8 29.6-4.5-5.4-15.3-27.5-24.2-49.2-8.9-21.8-12.5-35-8-29.6Z"
        fill="none" stroke="#bbcbd4" stroke-width="8.3" />
    <path
        d="M1099.4 204.6a193 193 0 0 0-58.2-7.7c-56.4 5-114.4 32.9-142.2 84.4-55.7 103.2-108.3 208.1-161.3 312.8-16.2 36.5-16.7 83.9 11.4 115 10.5 11.6 32.3 21.8 46.5 26.9 103.2 36.6 206.6 72.7 310.2 108a227.7 227.7 0 0 0 42 13.9c74 17.7 131.3-52.8 164.4-108.3a644.5 644.5 0 0 0 26.7-51c8-16.7 15-33.7 22.2-50.7 11.4-26.9 21.8-54.2 33.7-80.8 18.8-42.2 39.4-83.5 58.5-125.6 5.6-13.5 8.3-28.2 9.8-42.8a97.6 97.6 0 0 0-64-99.5c-99.3-33.3-199.6-63.8-299.7-94.6ZM1314 799.3l174.3-360.6c12.1-18.4 41-36.9 60.6-16.8 6.9 7.1 11.7 16 16.4 24.8 33.8 62.9 55.5 133.3 54.1 205.2-1.1 58.2-26.1 113.1-49.5 165-41.3 91.8-83.9 183-126.4 274.3a138 138 0 0 1-21.6 29.3c-36.1 40.7-71-33.8-81-59.3-31.6-81.2-65.6-176.8-26.9-261.9Zm-538.4-36.8 332 118.6c61.9 24.3 119.7 62.2 160.5 115.4 13 17 26.4 45.8 35.1 65.2 10.3 22.9 26 59 32 83.6 8.8 26.2-26 31.1-42.6 25-112.5-40.9-224.4-83.4-336.4-125.4-85.4-32-145-107.4-192.7-181.8a228.7 228.7 0 0 1-33.1-73.6c-3.9-13.7 7.8-25.3 20.7-28.1 8-1.7 16.5-.7 24.5 1Z"
        fill="#1f5e81" stroke="#142128" stroke-width="2.1" />
    <path
        d="M1040.3 294.3c33.1 0 54 24.5 46.6 54.8-7.4 30.3-40.3 54.8-73.4 54.8-33 0-54-24.5-46.6-54.8 7.4-30.3 40.3-54.8 73.4-54.8Zm258.3 78.4c34.8 0 56.8 25.8 49 57.7-7.8 31.8-42.4 57.6-77.2 57.6-34.8 0-56.8-25.8-49-57.6 7.7-31.9 42.3-57.7 77.2-57.7Zm-126.2 253c36 0 58.8 25.8 51 57.6-7.7 31.9-43.2 57.7-79.1 57.7-36 0-58.8-25.8-51-57.7 7.7-31.8 43.2-57.6 79.1-57.6Zm-254.2-82.9c33.2 0 54.3 24 47.1 53.4-7.1 29.4-40 53.3-73.2 53.3s-54.3-23.9-47.2-53.3c7.2-29.5 40-53.4 73.3-53.4ZM1449.6 833c-14.8 12.5-22.2-1.9-16.5-32.1 5.6-30.2 22.3-65 37-77.5 14.9-12.5 22.3 1.8 16.6 32-5.7 30.3-22.3 65-37.1 77.5ZM901.7 957.4c15 0 47.2 13.4 72 30 24.8 16.6 32.8 30 17.8 30-14.9 0-47.1-13.4-72-30-24.7-16.6-32.7-30-17.8-30Zm85.7-20.2c15 0 47.2 13.4 72 30 24.8 16.6 32.8 30 17.8 30-15 0-47.2-13.4-72-30-24.7-16.6-32.7-30-17.8-30ZM1077 915c15 0 47.3 13.5 72 30.1 24.8 16.6 32.8 30 18 30-15 0-47.3-13.4-72-30-24.8-16.6-32.8-30-18-30Z"
        fill="none" stroke="#bbcbd4" stroke-width="8.3" />
</svg>