<svg viewBox="0 0 800 800" xmlns="http://www.w3.org/2000/svg" xml:space="preserve" fill-rule="evenodd"
    clip-rule="evenodd" stroke-linecap="round" stroke-linejoin="round" stroke-miterlimit="1.5">
    <path
        d="M174.5 563.2c54-29 108-57.8 161.6-87.2 19.2-10.5 18.3-37.8 10.3-55.1-2.9-6.1-6.4-12-10.4-17.5-17.7-24.4-36.6-47.9-54.7-72-8.6-11.5-17-23.2-25.4-34.9-25.6-35.7-54.7-15.7-81.4-2.4-8.8 4.4-26.2 14.3-35 18.8a2167.9 2167.9 0 0 0-95.4 53.3c-17 13.5-16.7 40.4-5.8 57.6C65 465.8 93 507 120.5 548.4c0 0 21 28.8 54 14.8ZM35.2 439.4l77 118.6c20.8 34.6 25.2 75.5 27.3 115 .2 3.3 4.8 37.7-10.8 30.8a27.3 27.3 0 0 1-7.5-4.7 38 38 0 0 1-5.7-7.5 3832 3832 0 0 1-48.7-78.8c-18.6-31-37.4-63.1-46.4-98.5a460.1 460.1 0 0 1-9.3-59c-.8-12-1.7-23-.5-35 .6-5 3-9.1 6.7-6.6 3.2 2.2 15.5 22.7 18 25.7ZM183 578.5a5395 5395 0 0 1 73.3-43c18.4-10.5 37.1-20.6 55.6-31 16.8-9.3 55.2-34.6 66.3-4.1a29 29 0 0 1 1.8 10.5 418.2 418.2 0 0 1-5.3 60.5c-2 10.8-6.7 26.3-13.1 35.4-19.8 28-52.7 42.1-81.7 57.7-34.2 18.3-68.4 37.3-105 50.5-18.7 6.1-21-23-22.3-34.6-3.2-27.2-8.4-59.2 9.7-82.7a76 76 0 0 1 20.7-19.2Z"
        fill="#13261c" stroke="#2bc3a7" />
    <circle cx="166.9" cy="394.8" r="19" fill="#13261c" stroke="#b4ebdf" stroke-width="3.5"
        transform="matrix(1.05922 .61154 -.67543 .97336 195.7 -86)" />
    <circle cx="166.9" cy="394.8" r="19" fill="#13261c" stroke="#b4ebdf" stroke-width="3.5"
        transform="matrix(1.05922 .61154 -.67543 .97336 247.9 -112)" />
    <circle cx="166.9" cy="394.8" r="19" fill="#13261c" stroke="#b4ebdf" stroke-width="3.5"
        transform="matrix(1.05922 .61154 -.67543 .97336 301 -139.7)" />
    <circle cx="166.9" cy="394.8" r="19" fill="#13261c" stroke="#b4ebdf" stroke-width="3.5"
        transform="matrix(1.05922 .61154 -.67543 .97336 258.6 3.3)" />
    <circle cx="166.9" cy="394.8" r="19" fill="#13261c" stroke="#b4ebdf" stroke-width="3.5"
        transform="matrix(1.05922 .61154 -.67543 .97336 310.8 -22.7)" />
    <circle cx="166.9" cy="394.8" r="19" fill="#13261c" stroke="#b4ebdf" stroke-width="3.5"
        transform="matrix(1.05922 .61154 -.67543 .97336 364 -50.4)" />
    <ellipse cx="251.8" cy="539.7" rx="17.8" ry="5.2" fill="#13261c" stroke="#b4ebdf" stroke-width="2.4"
        transform="matrix(1.12544 -.71894 1.07202 1.67816 -651.8 -127.7)" />
    <ellipse cx="251.8" cy="539.7" rx="17.8" ry="5.2" fill="#13261c" stroke="#b4ebdf" stroke-width="2.4"
        transform="matrix(1.12544 -.71894 1.07202 1.67816 -537.7 -119.7)" />
    <circle cx="124.7" cy="448.8" r="14.1" fill="#13261c" stroke="#b4ebdf" stroke-width="2.9"
        transform="matrix(.28417 .34389 .56634 1.38568 -239.7 -112.8)" />
    <circle cx="124.7" cy="448.8" r="14.1" fill="#13261c" stroke="#b4ebdf" stroke-width="2.9"
        transform="matrix(.28417 .34389 .56634 1.38568 -246 -179.5)" />
    <circle cx="124.7" cy="448.8" r="14.1" fill="#13261c" stroke="#b4ebdf" stroke-width="2.9"
        transform="matrix(.28417 .34389 .56634 1.38568 -183 -27.2)" />
    <circle cx="124.7" cy="448.8" r="14.1" fill="#13261c" stroke="#b4ebdf" stroke-width="2.9"
        transform="matrix(.28417 .34389 .56634 1.38568 -189.4 -94)" />
    <g fill="#13261c">
        <path
            d="M532 88.1a95.7 95.7 0 0 0-28.9-3.8c-28 2.5-56.7 16.3-70.5 41.9-27.7 51.2-53.7 103.2-80 155.1-8 18.1-8.3 41.6 5.6 57.1 5.2 5.7 16 10.8 23 13.3 51.3 18.2 102.6 36 154 53.6 6.6 3 13.7 5.2 20.8 6.9 36.7 8.8 65.1-26.2 81.6-53.8 4.8-8.1 9-16.7 13.2-25.2 4-8.3 7.4-16.8 11-25.2 5.7-13.3 10.8-26.9 16.7-40 9.4-21 19.5-41.5 29-62.4 2.8-6.7 4.2-14 4.9-21.2 2-21-11.6-42.6-31.8-49.3-49.2-16.6-99-31.7-148.6-47Zm106.4 295L725 204.2c6-9 20.3-18.3 30-8.3a53 53 0 0 1 8.2 12.3A208.5 208.5 0 0 1 790 310c-.5 28.9-13 56.1-24.5 81.8-20.5 45.6-41.6 90.9-62.7 136.1-2.7 5.4-6.7 10-10.7 14.5-18 20.2-35.3-16.7-40.2-29.4-15.7-40.2-32.5-87.7-13.4-129.9Zm-267.1-18.3 164.8 58.9a185 185 0 0 1 79.6 57.2 187 187 0 0 1 17.4 32.4c5 11.3 12.8 29.3 15.8 41.5 4.4 13-12.8 15.4-21 12.4-55.9-20.3-111.4-41.4-167-62.2-42.3-15.9-71.9-53.3-95.5-90.2-8.7-13.6-12.1-21-16.5-36.6-1.9-6.7 4-12.5 10.3-13.9 4-.8 8.2-.3 12.1.5Z"
            stroke="#2bc3a7" />
        <circle cx="477.4" cy="192.3" r="22.4" stroke="#b4ebdf" stroke-width="3.5"
            transform="matrix(1.32976 0 -.29658 1.21539 -81.7 -74)" />
        <circle cx="477.4" cy="192.3" r="22.4" stroke="#b4ebdf" stroke-width="3.4"
            transform="matrix(1.3986 0 -.31194 1.2783 16.1 -45.8)" />
        <circle cx="477.4" cy="192.3" r="22.4" stroke="#b4ebdf" stroke-width="3.3"
            transform="matrix(1.44272 0 -.31194 1.2783 -67.5 79.7)" />
        <circle cx="477.4" cy="192.3" r="22.4" stroke="#b4ebdf" stroke-width="3.6"
            transform="matrix(1.3344 0 -.28851 1.18231 -146 55)" />
        <circle cx="638.2" cy="354.4" r="17" stroke="#b4ebdf" stroke-width="5.4"
            transform="matrix(-.7821 .66225 .30006 -1.59695 1103.6 516)" />
        <ellipse cx="449" cy="448" rx="20.6" ry="13.7" stroke="#b4ebdf" stroke-width="2.2"
            transform="matrix(.65185 0 1.62325 1.08558 -563.7 -9.9)" />
        <ellipse cx="449" cy="448" rx="20.6" ry="13.7" stroke="#b4ebdf" stroke-width="2.2"
            transform="matrix(.65185 0 1.62325 1.08558 -521.2 -20)" />
        <ellipse cx="449" cy="448" rx="20.6" ry="13.7" stroke="#b4ebdf" stroke-width="2.2"
            transform="matrix(.65185 0 1.62325 1.08558 -476.7 -30.9)" />
    </g>
</svg>