<svg viewBox="0 0 1667 1667" xmlns="http://www.w3.org/2000/svg" xml:space="preserve" fill-rule="evenodd"
    clip-rule="evenodd" stroke-linecap="round" stroke-linejoin="round" stroke-miterlimit="1.5">
    <path
        d="M368.9 1169.3C480 1110 591.2 1050.3 701.8 990c39.4-21.6 37.7-77.8 21.1-113.5a216.8 216.8 0 0 0-21.3-36C665 790.2 626 741.8 588.8 692c-17.7-23.7-35-47.8-52.3-71.9-52.7-73.5-112.7-32.3-167.6-5-18.2 9-54 29.5-72 38.7-35.9 18.4-71.1 38-106.3 57.6-30.3 17-60.3 34.5-90.2 52.2-35.2 27.7-34.5 83.2-11.9 118.7 55 86.5 112.5 171.3 169.3 256.5 0 0 43.2 59.4 111 30.4ZM82.1 914.5l158.7 244.1c42.6 71.4 51.8 155.6 56.1 236.8.4 7 9.8 77.8-22.3 63.6-5.6-2.5-11-5.7-15.5-9.8a74 74 0 0 1-11.6-15.3c-34-53.8-67.8-107.7-100.4-162.4-38.2-64-77-129.9-95.5-202.9a947.8 947.8 0 0 1-19.2-121.2c-1.7-25-3.4-47.4-1-72.2 1.1-10.4 6.3-18.8 13.7-13.7 6.6 4.6 32 46.7 37 53Zm304.4 286.4c50.2-29.7 100.3-59.5 150.9-88.5 37.9-21.7 76.4-42.5 114.6-63.8 34.5-19.3 113.6-71.3 136.5-8.5a62.7 62.7 0 0 1 3.6 21.6 861.7 861.7 0 0 1-10.8 124.7c-4.2 22-13.8 54-27 72.7-40.9 57.7-108.6 87-168.4 119-70.4 37.6-140.7 76.8-216.1 104-38.6 12.6-43.1-47.3-46-71.2-6.5-56-17.2-122 20-170.4a156.6 156.6 0 0 1 42.7-39.6Z"
        fill="#162d39" stroke="#91b5c8" stroke-width="2.1" />
    <path
        d="M253.8 795.9a42.6 42.6 0 0 1 15 62 52 52 0 0 1-67.8 14 42.6 42.6 0 0 1-15-62 52 52 0 0 1 67.8-14Zm107.5-53.6a42.6 42.6 0 0 1 15 62 52 52 0 0 1-67.8 14.1 42.6 42.6 0 0 1-15-62 52 52 0 0 1 67.8-14.1ZM471 685.4a42.6 42.6 0 0 1 15 62 52 52 0 0 1-67.8 14 42.6 42.6 0 0 1-15-61.9 52 52 0 0 1 67.8-14.1Zm-87.6 294.5a42.6 42.6 0 0 1 15 62 52 52 0 0 1-67.8 14 42.6 42.6 0 0 1-15-61.9 52 52 0 0 1 67.8-14.1ZM491 926.3a42.6 42.6 0 0 1 15 62 52 52 0 0 1-67.9 14.1 42.6 42.6 0 0 1-15-62 52 52 0 0 1 67.8-14Zm109.6-56.9a42.6 42.6 0 0 1 15 62 52 52 0 0 1-67.8 14 42.6 42.6 0 0 1-15-61.9 52 52 0 0 1 67.8-14.1Zm-169.8 351.7c22.8-14.5 46.4-18.3 52.8-8.3 6.3 9.9-7 29.8-29.8 44.3-22.8 14.5-46.4 18.3-52.7 8.4-6.4-10 7-29.9 29.7-44.4Zm234.9 16.5c22.8-14.6 46.4-18.3 52.8-8.4 6.3 10-7 29.8-29.8 44.4-22.8 14.5-46.4 18.2-52.7 8.3-6.4-10 7-29.8 29.7-44.3ZM95.9 1106.2c4.6 5.5 15.6 28 24.7 50.2 9 22.2 12.8 35.8 8.2 30.3-4.6-5.5-15.6-28-24.7-50.3-9-22.2-12.8-35.7-8.2-30.2ZM83 968.8c4.5 5.5 15.6 28 24.6 50.3 9.1 22.2 12.8 35.7 8.2 30.2-4.5-5.5-15.6-28-24.7-50.2-9-22.2-12.7-35.8-8.2-30.3Zm129.5 313.6c4.6 5.5 15.7 28 24.7 50.3 9.1 22.2 12.8 35.8 8.2 30.2-4.5-5.5-15.6-28-24.7-50.2-9-22.2-12.7-35.8-8.2-30.3ZM199.6 1145c4.5 5.6 15.6 28 24.7 50.3 9 22.2 12.7 35.8 8.2 30.3-4.6-5.5-15.6-28-24.7-50.3-9.1-22.2-12.8-35.8-8.2-30.2Z"
        fill="none" stroke="#bbcbd4" stroke-width="8.3" />
    <path
        d="M1105.2 191c-15.7-4.6-43-9.4-59.5-7.9-57.6 5.2-116.9 33.6-145.3 86.3-57 105.4-110.6 212.6-164.7 319.5-16.6 37.3-17.1 85.7 11.6 117.6 10.7 11.8 33 22.2 47.4 27.4a27051 27051 0 0 0 317 110.4 232.6 232.6 0 0 0 42.8 14.1c75.6 18.1 134.2-53.9 168-110.6 10-16.9 18.8-34.5 27.3-52.1 8.2-17 15.3-34.5 22.7-51.8 11.7-27.5 22.3-55.3 34.4-82.5 19.3-43.1 40.2-85.4 59.8-128.3 5.7-13.9 8.5-28.9 10-43.8a99.7 99.7 0 0 0-65.4-101.6c-101.5-34-203.9-65.2-306.1-96.7Zm219.2 607.6 178-368.4c12.4-18.8 41.8-37.7 62-17.1 7 7.2 12 16.4 16.7 25.3 34.6 64.2 56.7 136.2 55.3 209.6-1.1 59.4-26.7 115.5-50.6 168.5-42.2 93.8-85.7 187-129.1 280.3a141 141 0 0 1-22 29.9c-37 41.5-72.6-34.6-82.8-60.6-32.3-83-67-180.6-27.5-267.5ZM774.3 761l339.2 121c63.2 24.8 122.3 63.6 164 117.9 13.4 17.4 27 46.8 35.9 66.6 10.5 23.4 26.4 60.4 32.6 85.4 9 26.8-26.4 31.8-43.5 25.6-115-41.8-229.2-85.2-343.6-128.1-87.3-32.6-148.2-109.8-196.9-185.7-18-28-24.8-43.2-33.9-75.3-3.9-14 8-25.8 21.2-28.7a60 60 0 0 1 25 1.1Z"
        fill="#162d39" stroke="#91b5c8" stroke-width="2.1" />
    <path
        d="M1044.8 282.6c33.8 0 55.1 25.1 47.6 56-7.6 31-41.2 56-75 56s-55.1-25-47.6-56c7.5-30.9 41.1-56 75-56Zm263.8 80.1c35.6 0 58 26.5 50 59-7.8 32.5-43.2 58.9-78.8 58.9-35.5 0-58-26.4-50-59 7.9-32.5 43.2-58.9 78.8-58.9Zm-128.9 258.5c36.7 0 60 26.4 52.1 59-7.9 32.4-44.1 58.8-80.8 58.8-36.7 0-60-26.4-52.2-58.9 8-32.5 44.2-59 81-59ZM920 536.5c34 0 55.5 24.5 48.2 54.5-7.3 30.1-40.9 54.5-74.8 54.5-34 0-55.6-24.4-48.2-54.5 7.3-30 40.8-54.5 74.8-54.5ZM1463 833c-15.2 12.7-22.8-2-17-32.8 5.8-30.9 22.8-66.4 38-79.2 15-12.8 22.6 1.9 16.8 32.8-5.8 30.9-22.8 66.3-37.9 79.1ZM903.2 960c15.3 0 48.2 13.8 73.5 30.7 25.3 17 33.5 30.7 18.3 30.7-15.3 0-48.2-13.7-73.6-30.6-25.3-17-33.5-30.7-18.2-30.7Zm87.5-20.6c15.3 0 48.2 13.7 73.6 30.7 25.3 17 33.5 30.7 18.2 30.7S1034.3 987 1009 970c-25.3-17-33.5-30.7-18.3-30.7Zm91.6-22.6c15.3 0 48.3 13.8 73.6 30.7 25.3 17 33.5 30.7 18.2 30.7s-48.2-13.7-73.5-30.7c-25.3-17-33.5-30.7-18.3-30.7Z"
        fill="none" stroke="#bbcbd4" stroke-width="8.3" />
</svg>